<svg width="100" height="100" viewBox="0 0 100 100" fill="none" xmlns="http://www.w3.org/2000/svg">
<path d="M35.9259 79C34.2963 79 32.9012 78.4184 31.7407 77.2552C30.5802 76.0921 30 74.6938 30 73.0604V60.2903C30 56.6275 30.5185 53.1009 31.5556 49.7104C32.5926 46.3198 34.2222 42.9417 36.4444 39.5759C34.5679 39.1305 33.0247 38.1158 31.8148 36.5319C30.6049 34.948 30 33.1661 30 31.1862V28.068C30 25.6921 31.0247 23.6999 33.0741 22.0912C35.1235 20.4826 37.2593 19.802 39.4815 20.0495L65.8519 22.6481C66.6914 22.7471 67.3457 23.0812 67.8148 23.6504C68.2839 24.2196 68.5185 24.8754 68.5185 25.6179V34.453C68.5185 35.1955 68.2593 35.8513 67.7407 36.4205C67.2222 36.9897 66.5926 37.3238 65.8519 37.4228L63.1852 37.7198C63.8765 40.1451 64.7901 42.323 65.9259 44.2534C67.0617 46.1837 68.4198 47.5696 70 48.4111L67.037 53.6082C64.4198 52.0738 62.3951 49.9578 60.963 47.2603C59.5309 44.5627 58.3951 41.5558 57.5556 38.2395L54.2963 38.5365C54.6914 41.0113 55.4444 43.5109 56.5556 46.0352C57.6667 48.5596 58.7901 50.8364 59.9259 52.8658C60.8148 54.4497 61.4815 56.1078 61.9259 57.8402C62.3704 59.5726 62.5926 61.3297 62.5926 63.1116V73.0604C62.5926 74.6938 62.0123 76.0921 60.8519 77.2552C59.6914 78.4184 58.2963 79 56.6667 79H35.9259ZM35.9259 28.8104V31.1862C35.9259 32.0772 36.2469 32.7949 36.8889 33.3393C37.5309 33.8838 38.2963 34.1065 39.1852 34.0075L62.5926 31.7802V28.2164L39.1852 25.9891C38.2963 25.8901 37.5309 26.1128 36.8889 26.6573C36.2469 27.2018 35.9259 27.9195 35.9259 28.8104ZM35.9259 73.0604H56.6667V63.1116C56.6667 61.8247 56.5062 60.5625 56.1852 59.3251C55.8642 58.0877 55.3827 56.8997 54.7407 55.7613C53.2099 53.0885 51.8765 50.3291 50.7407 47.483C49.6049 44.637 48.8148 41.8528 48.3704 39.1305L43.9259 39.5017L42 42.026C40.0247 44.6493 38.5185 47.5325 37.4815 50.6755C36.4444 53.8186 35.9259 57.0235 35.9259 60.2903V73.0604Z" fill="black"/>
</svg>
