<svg width="100" height="100" viewBox="0 0 100 100" fill="none" xmlns="http://www.w3.org/2000/svg">
<path d="M38.6325 66.6494L58.5895 68.6451M58.5895 68.6451L62.7911 72.38C63.5703 73.0726 64.8072 72.6406 64.9859 71.6135L66.8059 61.148C66.9891 60.0947 65.9179 59.2664 64.9446 59.7089L59.9199 61.9928M58.5895 68.6451L59.9199 61.9928M59.9199 61.9928L51.9371 59.9971M33.9759 26.7355L10.476 46.4245C9.87741 46.9261 9.83748 47.8329 10.3897 48.3851L32.9484 70.9439C33.5006 71.4961 34.4075 71.4562 34.909 70.8576L54.5981 47.3577M33.9759 26.7355L37.697 23.5459C38.2249 23.0935 39.0121 23.1237 39.5037 23.6153L57.7183 41.8299C58.2099 42.3215 58.2401 43.1087 57.7877 43.6365L54.5981 47.3577M33.9759 26.7355L54.5981 47.3577M33.9759 26.7355C33.9759 26.7355 25.3278 14.7613 18.0103 22.7441C10.6928 30.7269 11.358 35.3835 16.0146 42.0358" stroke="black" stroke-width="4"/>
<path d="M72.5593 62.6581C81.5946 64.1672 85.6133 66.9234 90.5206 75.9627M71.2288 69.9756C78.5977 70.981 81.1332 73.609 83.8682 80.6193" stroke="black" stroke-width="4" stroke-linecap="round" stroke-dasharray="5 5"/>
</svg>
